<?xml version="1.0" standalone="no"?>
<!DOCTYPE svg PUBLIC "-//W3C//DTD SVG 20010904//EN"
 "http://www.w3.org/TR/2001/REC-SVG-20010904/DTD/svg10.dtd">
<svg version="1.0" xmlns="http://www.w3.org/2000/svg"
 width="1000.000000pt" height="1000.000000pt" viewBox="0 0 1000.000000 1000.000000"
 preserveAspectRatio="xMidYMid meet">
<metadata>
Created by potrace 1.11, written by Peter Selinger 2001-2013
</metadata>
<g transform="translate(0.000000,1000.000000) scale(0.100000,-0.100000)"
fill="#000000" stroke="none">
<path d="M2397 7605 c659 -1317 1200 -2395 1203 -2395 3 0 544 1078 1203 2395
l1197 2395 -2400 0 -2400 0 1197 -2395z"/>
<path d="M5202 7605 c-655 -1312 -1192 -2388 -1192 -2393 0 -4 4 -7 9 -7 5 0
12 -3 16 -7 4 -4 18 -3 31 2 13 5 26 6 29 0 3 -5 18 -5 33 -1 15 4 39 4 55 0
15 -4 27 -3 27 1 0 5 14 5 30 0 17 -5 30 -5 30 0 0 5 13 5 30 0 18 -5 32 -5
35 1 4 5 13 5 24 0 9 -5 23 -6 31 -1 7 4 19 6 26 3 21 -8 104 -9 104 -1 0 4
13 3 30 -2 18 -5 32 -5 36 1 3 5 12 6 21 0 9 -4 31 -5 49 -1 19 4 34 5 34 1 0
-6 27 -6 117 0 23 2 45 0 49 -4 4 -3 14 -2 23 3 10 5 23 5 31 0 8 -5 21 -5 30
0 9 5 22 5 30 0 8 -5 21 -5 30 0 9 5 22 5 30 0 8 -5 21 -5 31 1 11 6 20 5 24
-1 3 -5 15 -6 29 0 12 4 29 4 36 0 8 -5 21 -5 30 0 9 5 22 5 30 0 8 -5 21 -5
30 0 9 5 22 5 30 0 8 -5 21 -5 31 1 11 6 20 5 24 -1 3 -6 15 -6 29 0 13 5 26
6 29 3 8 -8 97 -9 97 -1 0 4 13 3 30 -2 18 -5 32 -5 36 1 3 5 12 6 21 0 9 -4
31 -5 49 -1 19 4 34 5 34 1 0 -6 122 -4 153 3 9 2 17 0 17 -4 0 -5 14 -5 30 0
17 5 30 6 30 2 0 -8 178 -7 186 1 3 3 19 1 35 -3 16 -5 29 -5 29 0 0 5 13 5
30 0 17 -5 30 -5 30 0 0 5 13 5 30 0 18 -5 32 -5 35 1 4 5 13 5 24 0 9 -5 23
-6 31 -1 7 4 19 6 26 3 21 -8 104 -9 104 -1 0 4 13 3 30 -2 18 -5 32 -5 36 1
3 5 12 6 21 0 9 -4 31 -5 49 -1 19 4 34 5 34 1 0 -6 27 -6 117 0 23 2 45 0 49
-4 4 -3 14 -2 23 3 10 5 23 5 31 0 8 -5 21 -5 30 0 9 5 22 5 30 0 8 -5 21 -5
30 0 9 5 22 5 30 0 8 -5 21 -5 31 1 11 6 20 5 24 -1 3 -5 15 -6 29 0 12 4 29
4 36 0 8 -5 21 -5 30 0 9 5 22 5 30 0 8 -5 21 -5 30 0 9 5 22 5 30 0 8 -5 21
-5 31 1 11 6 20 5 24 -1 3 -6 15 -6 29 0 13 5 26 6 29 3 8 -8 97 -9 97 -1 0 4
13 3 30 -2 18 -5 32 -5 36 1 3 5 12 6 21 0 9 -4 31 -5 49 -1 19 4 34 5 34 1 0
-6 122 -4 153 3 9 2 17 0 17 -4 0 -5 14 -5 30 0 17 5 30 6 30 2 0 -8 178 -7
186 1 3 3 19 1 35 -3 16 -5 29 -5 29 0 0 5 13 5 30 0 17 -5 30 -5 30 0 0 5 13
5 30 0 18 -5 32 -5 35 1 4 5 13 5 24 0 9 -5 23 -6 31 -1 7 4 19 6 26 3 21 -8
104 -9 104 -1 0 4 13 3 30 -2 18 -5 32 -5 36 1 3 5 12 6 21 0 9 -4 31 -5 49
-1 19 4 34 5 34 1 0 -6 27 -6 117 0 23 2 45 0 49 -3 3 -4 17 -3 30 2 13 5 26
5 29 1 3 -5 14 -7 24 -4 18 4 -123 290 -1177 2399 -658 1317 -1199 2394 -1202
2394 -3 0 -542 -1073 -1198 -2385z m2073 -248 c478 -958 874 -1745 880 -1750
5 -4 -6 -7 -25 -7 -19 0 -42 0 -50 -1 -8 0 -26 0 -40 0 -14 1 -33 1 -42 1 -34
-1 -87 0 -110 1 -7 0 -26 0 -43 0 -16 -1 -37 -1 -45 0 -8 0 -24 0 -35 -1 -22
-1 -103 -1 -122 -1 -13 1 -29 1 -58 1 -8 0 -36 0 -62 0 -27 0 -69 -1 -95 -1
-25 -1 -51 2 -57 5 -5 4 -12 2 -16 -4 -4 -6 -11 -7 -17 -4 -6 4 -32 6 -57 6
-25 -1 -65 -2 -88 -2 -24 0 -50 0 -58 0 -34 0 -46 0 -57 1 -7 1 -29 1 -48 0
-19 -1 -43 -1 -52 -1 -10 0 -25 0 -33 0 -8 0 -36 0 -62 0 -27 0 -69 -1 -95 -1
-25 -1 -51 2 -57 5 -5 4 -12 2 -16 -4 -4 -6 -11 -7 -17 -4 -6 4 -32 6 -57 6
-25 -1 -65 -2 -88 -2 -24 0 -50 0 -58 0 -30 0 -45 0 -57 1 -7 0 -22 0 -33 -1
-25 -1 -87 -1 -117 1 -7 0 -26 0 -43 0 -38 -1 -62 -1 -100 0 -16 0 -36 0 -42
0 -31 -2 -105 -2 -135 0 -7 0 -26 0 -43 0 -37 -1 -61 -1 -100 0 -35 0 -92 -1
-157 -2 -25 -1 -51 2 -57 5 -5 4 -12 2 -16 -4 -4 -6 -11 -7 -17 -4 -6 4 -32 6
-57 6 -25 -1 -65 -2 -88 -2 -24 0 -50 0 -58 0 -8 0 -22 0 -30 0 -8 0 -36 0
-62 0 -27 0 -69 -1 -95 -1 -25 -1 -51 2 -57 5 -5 4 -12 2 -16 -4 -4 -6 -11 -7
-17 -4 -6 4 -32 6 -57 6 -25 -1 -65 -2 -88 -2 -44 0 -64 0 -85 0 -7 0 -33 0
-58 1 -25 0 -49 0 -55 -1 -22 -4 -75 -2 -89 3 -11 4 83 201 409 854 233 466
428 853 432 858 5 6 9 12 9 15 -1 10 588 1185 597 1191 5 3 7 8 5 11 -4 6 275
567 282 567 3 0 396 -784 875 -1742z"/>
<path d="M4007 4804 c-8 -9 2381 -4784 2393 -4784 5 0 548 1075 1204 2389
1037 2072 1192 2390 1176 2394 -10 3 -21 2 -25 -1 -3 -3 -24 -5 -48 -4 -23 2
-48 2 -54 2 -31 0 -40 0 -68 3 -16 1 -40 -1 -52 -5 -14 -5 -23 -3 -23 3 0 6
-6 7 -17 0 -9 -5 -26 -5 -38 -1 -12 5 -28 4 -35 0 -8 -5 -22 -4 -31 1 -12 6
-20 5 -24 -1 -4 -6 -11 -8 -16 -4 -14 8 -69 12 -69 5 0 -3 -21 -5 -47 -3 -27
1 -54 3 -60 2 -28 0 -39 0 -68 3 -16 1 -40 -1 -52 -5 -14 -5 -23 -3 -23 3 0 6
-6 7 -17 0 -9 -5 -26 -5 -38 -1 -12 5 -28 4 -35 0 -8 -5 -22 -4 -31 1 -12 6
-20 5 -24 -1 -4 -6 -11 -8 -16 -4 -14 8 -69 12 -69 5 0 -3 -21 -5 -47 -3 -27
1 -54 3 -60 2 -28 0 -39 0 -68 3 -16 1 -40 -1 -52 -5 -14 -5 -23 -3 -23 3 0 6
-6 7 -17 0 -9 -5 -26 -5 -38 -1 -12 5 -28 4 -35 0 -8 -5 -22 -4 -31 1 -12 6
-20 5 -24 -1 -4 -6 -11 -8 -16 -4 -14 8 -69 12 -69 5 0 -3 -21 -5 -47 -3 -27
1 -54 3 -60 2 -28 0 -39 0 -68 3 -16 1 -40 -1 -52 -5 -14 -5 -23 -3 -23 3 0 6
-6 7 -17 0 -9 -5 -26 -5 -38 -1 -12 5 -28 4 -35 0 -8 -5 -22 -4 -31 1 -12 6
-20 5 -24 -1 -4 -6 -11 -8 -16 -4 -14 8 -69 12 -69 5 0 -3 -21 -5 -47 -3 -27
1 -54 3 -60 2 -28 0 -39 0 -68 3 -16 1 -40 -1 -52 -5 -14 -5 -23 -3 -23 3 0 6
-6 7 -17 0 -9 -5 -26 -5 -38 -1 -12 5 -28 4 -35 0 -8 -5 -22 -4 -31 1 -12 6
-20 5 -24 -1 -4 -6 -11 -8 -16 -4 -14 8 -69 12 -69 5 0 -3 -21 -5 -47 -3 -27
1 -54 3 -60 2 -28 0 -39 0 -68 3 -16 1 -40 -1 -52 -5 -14 -5 -23 -3 -23 3 0 6
-6 7 -17 0 -9 -5 -26 -5 -38 -1 -12 5 -28 4 -35 0 -8 -5 -22 -4 -31 1 -12 6
-20 5 -24 -1 -4 -6 -11 -8 -16 -4 -14 8 -69 12 -69 5 0 -3 -21 -5 -47 -3 -27
1 -54 3 -60 2 -28 0 -39 0 -68 3 -16 1 -40 -1 -52 -5 -14 -5 -23 -3 -23 3 0 6
-6 7 -17 0 -9 -5 -26 -5 -38 -1 -12 5 -28 4 -35 0 -8 -5 -22 -4 -31 1 -12 6
-20 5 -24 -1 -4 -6 -11 -8 -16 -4 -14 8 -69 12 -69 5 0 -7 -74 -4 -107 3 -13
3 -25 1 -28 -4 -3 -5 -15 -6 -27 -1 -12 4 -37 5 -55 1 -18 -5 -33 -5 -33 -1 0
3 -16 6 -35 6 -19 0 -35 -2 -35 -5 0 -3 -21 -4 -47 -2 -27 1 -54 3 -60 2 -28
0 -39 0 -68 3 -16 1 -40 -1 -52 -5 -14 -5 -23 -3 -23 3 0 6 -6 7 -17 0 -9 -5
-26 -5 -38 -1 -12 5 -28 4 -35 0 -8 -5 -22 -4 -31 1 -12 6 -20 5 -24 -1 -4 -6
-11 -8 -16 -4 -14 8 -69 12 -69 5 0 -3 -21 -5 -47 -3 -27 1 -54 3 -60 2 -28 0
-39 0 -68 3 -16 1 -40 -1 -52 -5 -14 -5 -23 -3 -23 3 0 6 -6 7 -17 0 -9 -5
-26 -5 -38 -1 -12 5 -28 4 -35 0 -8 -5 -22 -4 -31 1 -12 6 -20 5 -24 -1 -4 -6
-11 -8 -16 -4 -14 8 -69 12 -69 5 0 -8 -86 -5 -98 3 -5 3 -12 3 -15 0z m747
-407 c5 5 35 6 109 2 6 0 40 1 74 2 35 2 65 0 69 -3 3 -4 17 -3 30 2 14 6 26
6 29 -1 4 -5 10 -7 14 -5 4 3 27 5 52 6 55 0 85 1 177 3 39 1 72 0 72 -3 0 -3
25 -5 55 -5 30 0 55 3 55 7 0 4 13 3 29 -2 16 -4 32 -6 35 -3 7 7 105 7 112 0
3 -3 17 -2 30 3 14 6 26 6 29 0 3 -6 15 -6 30 0 14 5 27 5 30 0 3 -5 18 -5 34
0 16 4 32 6 35 3 7 -8 116 -9 116 -2 0 4 16 3 35 -1 19 -4 35 -5 35 -1 0 3 21
5 47 3 65 -4 60 -4 130 -1 35 2 65 0 69 -3 3 -4 17 -3 30 2 13 5 25 6 28 2 3
-5 30 -5 61 -2 31 3 58 3 61 -2 3 -4 16 -3 29 2 15 6 27 6 30 0 3 -6 15 -6 30
0 14 5 27 5 30 0 3 -5 18 -5 34 0 15 4 33 5 40 1 6 -4 36 -4 67 -1 30 3 57 3
60 -2 3 -4 16 -3 29 2 15 6 27 6 30 0 3 -6 15 -6 30 0 14 5 27 5 30 0 3 -5 18
-5 34 0 15 4 34 4 42 0 7 -5 16 -7 19 -5 4 2 26 4 51 5 55 0 85 1 177 3 39 1
72 0 72 -3 0 -3 25 -5 55 -5 30 0 55 3 55 7 0 4 13 3 29 -2 16 -4 32 -6 35 -3
7 7 105 7 112 0 3 -3 17 -2 30 3 14 6 26 6 29 0 3 -5 15 -6 28 -1 12 5 31 5
42 1 11 -4 27 -4 36 1 9 5 19 5 23 2 8 -8 102 -7 116 2 5 3 10 2 10 -3 0 -6
14 -7 35 -2 19 4 35 4 35 0 0 -4 15 -4 34 0 19 4 40 4 47 -1 7 -4 20 -4 29 1
9 5 22 5 30 0 7 -4 20 -6 28 -2 9 3 13 1 10 -4 -2 -5 -240 -481 -528 -1059
-288 -577 -528 -1053 -534 -1057 -6 -4 -8 -8 -4 -8 5 0 -649 -1316 -676 -1358
-5 -9 -301 573 -882 1735 l-875 1748 28 6 c15 3 38 2 49 -2 12 -4 25 -5 28 -2z"/>
</g>
</svg>
