<?xml version="1.0" standalone="no"?>
<!DOCTYPE svg PUBLIC "-//W3C//DTD SVG 20010904//EN"
 "http://www.w3.org/TR/2001/REC-SVG-20010904/DTD/svg10.dtd">
<svg version="1.0" xmlns="http://www.w3.org/2000/svg"
 width="700.000000pt" height="700.000000pt" viewBox="0 0 700.000000 700.000000"
 preserveAspectRatio="xMidYMid meet">
<metadata>
Created by potrace 1.11, written by Peter Selinger 2001-2013
</metadata>
<g transform="translate(0.000000,700.000000) scale(0.100000,-0.100000)"
fill="#000000" stroke="none">
<path d="M267 6989 c-97 -23 -190 -101 -235 -197 l-27 -57 0 -3235 0 -3235 27
-57 c34 -73 103 -142 176 -176 l57 -27 3235 0 3235 0 57 27 c73 34 142 103
176 176 l27 57 0 3235 0 3235 -27 57 c-34 73 -103 142 -176 176 l-57 27 -3215
2 c-1852 0 -3231 -3 -3253 -8z m4778 -1725 c187 -15 341 -28 342 -29 2 -1 -15
-100 -36 -221 -165 -923 -392 -1904 -652 -2819 -99 -347 -220 -749 -229 -759
-6 -6 -529 30 -536 38 -15 15 -258 986 -354 1411 -33 149 -63 279 -67 290 -3
12 -32 -98 -69 -267 -85 -392 -153 -675 -235 -983 -67 -254 -153 -552 -161
-561 -7 -6 -522 38 -531 46 -20 17 -343 1760 -451 2435 -80 499 -205 1400
-194 1410 3 3 711 -56 716 -60 1 -1 29 -262 62 -581 51 -503 198 -1840 215
-1961 4 -28 11 -43 21 -43 8 0 14 3 14 6 0 4 34 167 75 363 146 696 240 1205
304 1644 21 141 40 259 42 261 4 3 552 -43 556 -47 1 -1 11 -103 23 -227 27
-284 85 -833 155 -1472 30 -274 55 -504 55 -513 0 -21 27 -19 34 3 16 55 195
879 255 1172 88 430 191 1012 226 1275 15 110 29 206 31 213 2 7 13 11 26 8
13 -3 176 -17 363 -32z"/>
</g>
</svg>
